<svg width="128" height="128" xmlns="http://www.w3.org/2000/svg" class="icon">
    <defs>
        <style type="text/css"/>
    </defs>
    <g>
        <title>background</title>
        <rect fill="none" id="canvas_background" height="130" width="130" y="-1" x="-1"/>
    </g>
    <g>
        <title>Layer 1</title>
        <path stroke="null" id="svg_1" fill="#333333" d="m63.92656,128.99999c-8.57187,0 -16.88814,-1.69239 -24.71742,-5.02986c-7.56175,-3.22358 -14.35243,-7.838 -20.18393,-13.71525c-5.83134,-5.87741 -10.40987,-12.72173 -13.6081,-20.34286c-3.31155,-7.89109 -4.99056,-16.27268 -4.99056,-24.91204s1.67901,-17.02111 4.99056,-24.91204c3.19824,-7.62129 7.77676,-14.4656 13.6081,-20.34286s12.62218,-10.49183 20.18393,-13.71525c7.82928,-3.33762 16.1454,-5.02986 24.71742,-5.02986s16.88798,1.69223 24.71742,5.02986c7.56175,3.22342 14.35259,7.838 20.18393,13.71525c5.83134,5.87741 10.40971,12.72156 13.6081,20.34286c3.31139,7.89093 4.99056,16.27252 4.99056,24.91204s-1.67917,17.02095 -4.99056,24.91204c-3.1984,7.62129 -7.77676,14.4656 -13.6081,20.34286c-5.8315,5.87725 -12.62234,10.49167 -20.18393,13.71525c-7.82944,3.33746 -16.14556,5.02986 -24.71742,5.02986zm0,-125.75439c-8.27219,0 -16.29627,1.63256 -23.84943,4.85245c-7.29598,3.11034 -13.84889,7.56307 -19.47636,13.23485c-5.62747,5.67178 -10.04558,12.27629 -13.13145,19.62971c-3.19489,7.61279 -4.8147,15.70005 -4.8147,24.03737s1.61981,16.42442 4.81454,24.03721c3.08604,7.35342 7.50398,13.95794 13.13145,19.62972c5.62747,5.67162 12.18038,10.12451 19.47636,13.23501c7.55316,3.21973 15.57724,4.85245 23.84943,4.85245s16.29611,-1.63272 23.84943,-4.85245c7.29598,-3.1105 13.84889,-7.56323 19.47636,-13.23501c5.62731,-5.67178 10.04542,-12.27629 13.13161,-19.62972c3.19458,-7.61279 4.81454,-15.70005 4.81454,-24.03721s-1.61997,-16.42458 -4.81454,-24.03721c-3.0862,-7.35359 -7.50414,-13.95794 -13.13161,-19.62972c-5.62747,-5.67178 -12.18038,-10.12467 -19.47636,-13.23485c-7.55316,-3.22005 -15.57724,-4.85261 -23.84927,-4.85261z"/>
        <path stroke="null" id="svg_2" fill="#333333" d="m98.54389,32.7289l-70.61797,0c-3.91072,0 -7.09408,3.46254 -7.09408,7.72608l0,47.10922c0,4.26681 3.18336,7.72101 7.09408,7.72101l70.61797,0c3.92765,0 7.09532,-3.4542 7.09532,-7.72101l0,-47.10922c0,-4.26289 -3.16768,-7.72608 -7.09532,-7.72608zm-1.69774,5.53238l-28.16141,27.16475c-2.45786,2.38549 -4.27766,3.5707 -5.44945,3.5707c-1.17256,0 -2.99236,-1.18522 -5.45022,-3.5707l-28.16079,-27.16475l67.22187,0zm-70.73692,47.58295l0,-42.56406l21.99283,20.98634l-21.99283,21.57772zm3.69829,3.90861l22.07544,-21.32883l3.61707,3.45485c2.10117,1.99751 4.6901,3.02334 7.73526,3.02334c3.06022,0 5.63331,-1.02584 7.74302,-3.02334l3.61645,-3.45485l22.07606,21.32883l-66.86332,0zm70.55617,-3.90861l-21.99299,-21.57772l21.99299,-20.98634l0,42.56406z"/>
    </g>
</svg>