<?xml version="1.0" standalone="no"?><!DOCTYPE svg PUBLIC "-//W3C//DTD SVG 1.1//EN" "http://www.w3.org/Graphics/SVG/1.1/DTD/svg11.dtd"><svg t="1485099326229" class="icon" style="" viewBox="0 0 1024 1024" version="1.1" xmlns="http://www.w3.org/2000/svg" p-id="2341" xmlns:xlink="http://www.w3.org/1999/xlink" width="200" height="200"><defs><style type="text/css"></style></defs><path d="M517.813403 304.932967c-2.825348 0-5.633301-0.081864-8.43102-0.245593l-12.746302-0.74906-1.584078-12.669554c-3.119037-24.954345 0.843204-52.172243 11.45796-78.710666 9.399067-23.496134 23.804149-45.696762 40.584324-62.548568 33.468253-36.344766 92.952019-64.114227 144.794757-67.570955l14.455223-0.963954 1.796926 14.375405c6.117324 48.921199-12.769838 101.409644-51.818179 144.007835l0 0C619.057271 280.508695 566.69674 304.932967 517.813403 304.932967zM678.574806 114.889657c-40.300868 6.759961-84.204797 28.974915-109.077278 56.108902l-0.461511 0.481977c-23.093974 23.094998-44.36237 62.498426-44.348044 102.570073 38.483476-2.136663 79.18548-22.408359 109.0036-54.939263l0 0C662.498666 187.686636 678.375262 150.460804 678.574806 114.889657z" p-id="2342"></path><path d="M376.959398 942.526407c-29.014824 0.001023-56.902988-11.809977-85.116563-35.992749-23.880897-20.468171-44.109614-46.044686-66.200748-74.931596-43.514049-56.907081-76.619028-131.954311-90.824565-205.898417-11.943007-62.164828-15.888875-152.657842 33.137725-230.736105l0.227174-0.352017c46.594201-69.892837 121.879861-111.620194 201.388706-111.620194 36.407188 0 69.423139 11.830443 98.553597 22.267143 19.606547 7.024997 38.126342 13.661138 51.141774 13.661138 11.267625 0 29.557176-6.725168 48.922223-13.845333 35.08917-12.901845 78.771041-28.958542 125.997646-25.022906l0.823761 0.084934c28.996404 3.220345 117.236098 13.019525 174.84619 89.827865l11.034311 14.712073-16.447601 8.226359c-0.233314 0.116657-23.915689 12.348236-47.182602 37.796838-28.621874 31.30396-43.13338 67.356061-43.13338 107.152439 0 108.577904 97.950869 148.056034 109.611443 152.311964l13.141298 0 0 15.349593c0 7.336082-9.561773 30.890544-15.988136 44.932352-9.315156 20.355607-25.51614 51.411927-49.822732 83.854826-18.098193 25.632797-37.728276 52.332902-61.130266 72.561619-27.672246 23.918759-56.784284 35.545564-89.001033 35.545564-31.758308 0-53.632501-8.458649-74.786287-16.637935-21.671579-8.379854-42.142819-16.296151-74.90806-16.296151-36.609803 0-58.270125 8.085142-81.20344 16.646122-19.48068 7.270591-39.623439 14.789844-67.684542 16.266475C380.552226 942.481382 378.75223 942.526407 376.959398 942.526407zM193.839777 411.472446c-77.904301 124.351146-14.066367 309.60436 56.18872 401.481907 34.56012 45.192272 77.576843 101.450577 130.750903 98.777701 23.313985-1.225921 39.629579-7.316639 58.521858-14.369266 23.336498-8.710382 49.785893-18.583241 91.938945-18.583241 38.494733 0 63.7223 9.755178 85.980233 18.361183 20.22053 7.820106 37.683251 14.57188 63.714114 14.57188 53.55473 0 88.375793-43.156916 125.177977-95.293343l0.260943-0.358157c31.182186-41.575908 48.940642-81.686441 56.219419-101.331873-2.481518-1.112334-5.317099-2.450818-8.44023-4.030803-11.189853-5.66093-28.107151-15.504112-45.162596-30.243815-29.910217-25.849738-65.566298-71.571059-65.566298-142.599765 0-89.065502 61.141522-141.91722 91.114161-162.470325-49.53109-54.358025-118.980835-62.074777-142.919037-64.733327l-0.190335-0.021489c-40.405245-3.304256-80.455403 11.423167-112.64964 23.25975-22.957875 8.441253-42.784432 15.731286-59.515488 15.731286-18.349927 0-38.344307-7.164167-61.496609-15.459087-26.776853-9.593496-57.125045-20.468171-88.197738-20.468171C300.413024 313.694515 234.736209 350.240873 193.839777 411.472446zM866.401636 703.0615C866.401636 703.0615 866.401636 703.062524 866.401636 703.0615 866.401636 703.062524 866.401636 703.0615 866.401636 703.0615z" p-id="2343"></path></svg>