<?xml version="1.0" standalone="no"?><!DOCTYPE svg PUBLIC "-//W3C//DTD SVG 1.1//EN" "http://www.w3.org/Graphics/SVG/1.1/DTD/svg11.dtd"><svg t="1485138211664" class="icon" style="" viewBox="0 0 1035 1024" version="1.1" xmlns="http://www.w3.org/2000/svg" p-id="3172" xmlns:xlink="http://www.w3.org/1999/xlink" width="202.1484375" height="200"><defs><style type="text/css"></style></defs><path d="M601.644547 985.002639 244.966235 985.002639c-58.556857 0-106.207053-47.650197-106.207053-106.225298L138.759182 215.481642c0-58.558073 47.651413-106.208269 106.207053-106.208269l108.811175 0c6.850263 0 12.408804 5.558541 12.408804 12.41002s-5.558541 12.41002-12.408804 12.41002l-108.811175 0c-44.870926 0-81.389445 36.517303-81.389445 81.389445l0 663.295699c0 44.887954 36.517303 81.405257 81.389445 81.405257l356.678312 0c6.851479 0 12.41002 5.558541 12.41002 12.411237C614.055784 979.445315 608.496027 985.002639 601.644547 985.002639z" p-id="3173"></path><path d="M723.414299 985.002639c-6.851479 0-12.41002-5.557325-12.41002-12.408804 0-6.852696 5.558541-12.411237 12.41002-12.411237 44.885522 0 81.405257-36.516086 81.405257-81.405257 0-6.850263 5.559757-12.408804 12.411237-12.408804 6.849047 0 12.406371 5.558541 12.406371 12.408804C829.637164 937.352443 781.985751 985.002639 723.414299 985.002639z" p-id="3174"></path><path d="M817.230793 782.460112c-6.851479 0-12.411237-5.559757-12.411237-12.41002L804.819556 215.481642c0-44.872142-36.518519-81.389445-81.405257-81.389445l-109.117685 0c-6.850263 0-12.408804-5.558541-12.408804-12.41002s5.558541-12.41002 12.408804-12.41002l109.117685 0c58.571452 0 106.222865 47.650197 106.222865 106.208269l0 554.56845C829.637164 776.899139 824.078623 782.460112 817.230793 782.460112z" p-id="3175"></path><path d="M542.005174 198.870484l-107.54986 0c-34.788925 0-63.081533-28.293825-63.081533-63.08275s28.292608-63.081533 63.081533-63.081533l107.54986 0c34.790141 0 63.080317 28.292608 63.080317 63.081533S576.795315 198.870484 542.005174 198.870484zM434.455314 97.526242c-21.102994 0-38.262709 17.159714-38.262709 38.262709 0 21.102994 17.159714 38.262709 38.262709 38.262709l107.54986 0c21.102994 0 38.261493-17.159714 38.261493-38.262709 0-21.102994-17.158498-38.262709-38.261493-38.262709L434.455314 97.526242z" p-id="3176"></path><path d="M535.458989 88.428236c-6.851479 0-12.407588-5.558541-12.407588-12.408804 0-17.112278-13.912164-31.024443-31.024443-31.024443l-9.662374 0c-17.111062 0-31.024443 13.912164-31.024443 31.024443 0 6.850263-5.558541 12.408804-12.41002 12.408804-6.850263 0-12.408804-5.558541-12.408804-12.408804 0-30.798209 25.045058-55.843267 55.843267-55.843267l9.662374 0c30.796992 0 55.843267 25.045058 55.843267 55.843267C547.870225 82.869696 542.310468 88.428236 535.458989 88.428236z" p-id="3177"></path><path d="M688.509824 356.057993 277.607155 356.057993c-6.851479 0-12.41002-5.558541-12.41002-12.41002 0-6.851479 5.558541-12.407588 12.41002-12.407588l410.902669 0c6.852696 0 12.411237 5.556108 12.411237 12.407588C700.922277 350.499452 695.36252 356.057993 688.509824 356.057993z" p-id="3178"></path><path d="M688.509824 441.551272 277.607155 441.551272c-6.851479 0-12.41002-5.558541-12.41002-12.41002s5.558541-12.407588 12.41002-12.407588l410.902669 0c6.852696 0 12.411237 5.556108 12.411237 12.407588S695.36252 441.551272 688.509824 441.551272z" p-id="3179"></path><path d="M688.509824 527.04455 277.607155 527.04455c-6.851479 0-12.41002-5.558541-12.41002-12.41002 0-6.851479 5.558541-12.41002 12.41002-12.41002l410.902669 0c6.852696 0 12.411237 5.558541 12.411237 12.41002C700.922277 521.486009 695.36252 527.04455 688.509824 527.04455z" p-id="3180"></path><path d="M688.509824 612.522016 277.607155 612.522016c-6.851479 0-12.41002-5.557325-12.41002-12.41002 0-6.851479 5.558541-12.41002 12.41002-12.41002l410.902669 0c6.852696 0 12.411237 5.558541 12.411237 12.41002C700.922277 606.964691 695.36252 612.522016 688.509824 612.522016z" p-id="3181"></path><path d="M688.509824 698.015294 277.607155 698.015294c-6.851479 0-12.41002-5.557325-12.41002-12.408804s5.558541-12.41002 12.41002-12.41002l410.902669 0c6.852696 0 12.411237 5.558541 12.411237 12.41002S695.36252 698.015294 688.509824 698.015294z" p-id="3182"></path><path d="M661.705981 999.012108 508.751234 846.056145c-4.848215-4.845783-4.848215-12.698286 0-17.546501 4.846999-4.848215 12.698286-4.848215 17.547718 0l135.407029 135.407029L878.371094 747.249128c4.846999-4.846999 12.699502-4.846999 17.548934 0 4.845783 4.846999 4.845783 12.699502 0 17.547718L661.705981 999.012108z" p-id="3183"></path></svg>