<?xml version="1.0" standalone="no"?><!DOCTYPE svg PUBLIC "-//W3C//DTD SVG 1.1//EN" "http://www.w3.org/Graphics/SVG/1.1/DTD/svg11.dtd"><svg t="1485156501006" class="icon" style="" viewBox="0 0 1025 1024" version="1.1" xmlns="http://www.w3.org/2000/svg" p-id="1657" xmlns:xlink="http://www.w3.org/1999/xlink" width="200.1953125" height="200"><defs><style type="text/css"></style></defs><path d="M1017.080072 502.795943c-9.18359-12.305847-228.384246-300.826543-505.063698-300.826543-276.682522 0-495.906715 288.521719-505.099515 300.826543l-6.913788 9.213268 6.913788 9.242945c9.191777 12.302777 228.416993 300.778446 505.099515 300.778446 276.679452 0 495.880108-288.518649 505.063698-300.778446l6.921975-9.242945L1017.080072 502.795943zM512.016374 791.158018c-234.212254 0-433.020509-229.81592-472.953879-279.148808 39.91188-49.351309 238.539-279.167229 472.953879-279.167229 234.196904 0 432.995949 229.83741 472.929319 279.167229C945.023579 561.388149 746.426136 791.158018 512.016374 791.158018zM512.334637 336.466938c-89.174156 0-161.713672 72.54975-161.713672 161.74642 0 89.179273 72.539516 161.730046 161.713672 161.730046 89.155736 0 161.687065-72.54975 161.687065-161.730046C674.020679 409.017711 601.48935 336.466938 512.334637 336.466938zM512.334637 638.34549c-77.254114 0-140.127016-62.843225-140.127016-140.132133 0-77.272534 62.872902-140.151577 140.127016-140.151577 77.248997 0 140.092222 62.878019 140.092222 140.151577C652.425836 575.502266 589.582611 638.34549 512.334637 638.34549z" p-id="1658"></path></svg>