<?xml version="1.0" standalone="no"?><!DOCTYPE svg PUBLIC "-//W3C//DTD SVG 1.1//EN" "http://www.w3.org/Graphics/SVG/1.1/DTD/svg11.dtd"><svg t="1485227675935" class="icon" style="" viewBox="0 0 1024 1024" version="1.1" xmlns="http://www.w3.org/2000/svg" p-id="1639" xmlns:xlink="http://www.w3.org/1999/xlink" width="200" height="200"><defs><style type="text/css"></style></defs><path d="M438.151612 746.995121c-170.501224 0.482-309.603862-137.833677-310.075628-308.315457-0.47279-170.499178 137.83163-309.596698 308.347181-310.058231 170.484851-0.497351 309.555764 137.824467 310.044928 308.321597C746.940883 607.419694 608.63237 746.523354 438.151612 746.995121zM436.505034 158.802227c-153.863514 0.415482-278.680112 125.940242-278.257466 279.789429 0.440043 153.84714 125.941265 278.647364 279.804779 278.230859 153.849187-0.429809 278.666808-125.948428 278.224718-279.795569C715.837023 283.169571 590.32045 158.370371 436.505034 158.802227z" p-id="1640"></path><path d="M864.032172 894.498482 658.438048 689.379195 689.703599 658.5148 895.282372 863.615666Z" p-id="1641"></path></svg>