<?xml version="1.0" standalone="no"?><!DOCTYPE svg PUBLIC "-//W3C//DTD SVG 1.1//EN" "http://www.w3.org/Graphics/SVG/1.1/DTD/svg11.dtd"><svg t="1487343901515" class="icon" style="" viewBox="0 0 1024 1024" version="1.1" xmlns="http://www.w3.org/2000/svg" p-id="1537" xmlns:xlink="http://www.w3.org/1999/xlink" width="64" height="64"><defs><style type="text/css"></style></defs><path d="M512.017067 51.2c-216.797867 0-392.533333 84.053333-392.533333 187.7504l0 512c0 103.662933 175.735467 187.716267 392.533333 187.716267 216.763733 0 392.533333-84.053333 392.533333-187.716267l0-512C904.5504 135.253333 728.7808 51.2 512.017067 51.2zM512.017067 85.333333c211.2 0 358.4 80.9472 358.4 153.617067 0 72.635733-147.2 153.582933-358.4 153.582933-211.234133 0-358.4-80.9472-358.4-153.582933C153.617067 166.280533 300.782933 85.333333 512.017067 85.333333zM870.417067 716.817067l0 34.133333c0 72.635733-147.2 153.582933-358.4 153.582933-211.234133 0-358.4-80.9472-358.4-153.582933l0-34.133333 0-60.0064c61.269333 65.501867 198.621867 111.189333 358.4 111.189333 159.726933 0 297.130667-45.687467 358.4-111.189333L870.417067 716.817067zM870.417067 580.283733c0 72.635733-147.2 153.582933-358.4 153.582933-211.234133 0-358.4-80.9472-358.4-153.582933l0-57.258667 0-36.864c61.269333 65.501867 198.621867 111.189333 358.4 111.189333 159.726933 0 297.130667-45.687467 358.4-111.189333L870.417067 580.283733zM870.417067 409.617067c0 72.635733-147.2 153.582933-358.4 153.582933-211.234133 0-358.4-80.9472-358.4-153.582933l0-94.139733c61.269333 65.501867 198.621867 111.189333 358.4 111.189333 159.726933 0 297.130667-45.687467 358.4-111.189333L870.417067 409.617067z" p-id="1538"></path></svg>