<?xml version="1.0" standalone="no"?><!DOCTYPE svg PUBLIC "-//W3C//DTD SVG 1.1//EN" "http://www.w3.org/Graphics/SVG/1.1/DTD/svg11.dtd"><svg t="1485099400542" class="icon" style="" viewBox="0 0 1024 1024" version="1.1" xmlns="http://www.w3.org/2000/svg" p-id="4199" xmlns:xlink="http://www.w3.org/1999/xlink" width="200" height="200"><defs><style type="text/css"></style></defs><path d="M939.863253 199.805652c-32.529881-42.74964-115.009384-24.036439-184.16851 2.319835-28.375258-22.745027-59.612703-41.413202-93.319385-55.669904-41.788755-17.675568-85.795015-27.900443-131.1152-30.507828-0.004093 0-0.008186 0-0.01228-0.001023-7.731078-0.444115-15.498996-0.674359-23.301705-0.674359-53.55166 0-105.507986 10.490935-154.429185 31.18321-47.244001 19.9821-89.669252 48.585555-126.099976 85.015256-36.430724 36.429701-65.033156 78.855976-85.016279 126.099976-20.692275 48.920176-31.18321 100.878548-31.18321 154.429185 0 53.172013 10.348696 104.771205 30.750351 153.389506-46.221718 60.914348-91.968621 140.738371-57.83522 185.594999 12.853749 16.892739 34.403554 25.379017 64.291259 25.377994 10.736529-0.001023 22.554692-1.095961 35.423791-3.291976 8.357342-1.425466 13.976316-9.355065 12.550851-17.711384-1.425466-8.357342-9.354042-13.978363-17.712407-12.550851-35.501562 6.055926-60.405765 2.356674-70.124104-10.414187-10.109242-13.285584-4.66116-36.604686 1.690502-53.827953 8.503675-23.060205 24.480554-51.028187 46.599318-81.691557 18.515702 35.154661 42.145889 67.236334 70.564126 95.653547 36.429701 36.430724 78.855976 65.033156 126.099976 85.016279 48.920176 20.691251 100.877525 31.18321 154.429185 31.18321 53.550637 0 105.507986-10.491958 154.429185-31.18321 47.244001-19.983123 89.670276-48.585555 126.099976-85.016279 11.707646-11.707646 22.595624-24.042579 32.660864-36.94954 6.493901-1.784646 11.273764-7.714705 11.277858-14.776542 0-0.13303-0.016373-0.260943-0.020466-0.39295 16.259312-23.044856 30.010501-47.767933 41.098024-73.979922 20.691251-48.921199 31.18321-100.878548 31.18321-154.429185 0-53.55166-10.491958-105.509009-31.18321-154.429185-19.9821-47.244001-48.585555-89.670276-85.016279-126.099976-2.125407-2.125407-4.275373-4.219091-6.441713-6.290263 31.28861-10.971889 58.931181-17.652032 81.071434-19.504216 18.291598-1.530866 42.218544-0.565888 52.329832 12.718673 11.625782 15.277962 4.759397 48.092321-18.837021 90.028433-4.157693 7.388271-1.538029 16.747429 5.850242 20.905122 7.387247 4.15667 16.746406 1.538029 20.904099-5.850242C954.55486 268.022313 960.111412 226.412636 939.863253 199.805652zM516.993223 874.763071c-44.552705-26.89351-82.280981-68.140936-110.820991-118.860085l220.469274 0.128937C598.398254 806.52185 561.077254 847.693552 516.993223 874.763071zM390.555555 725.19459c-26.676569-58.165748-42.24822-126.122489-43.809785-197.844997l338.849428 0c-1.427512 71.738881-16.873296 139.743718-43.432185 197.99133L390.555555 725.19459zM212.551442 725.090213c-0.661056 0-1.307785 0.056282-1.947352 0.137123-12.559037-17.464767-23.620977-36.074613-32.993438-55.642275 36.140105-45.375443 82.4662-93.768617 135.8879-142.235468l2.544963 0c1.471514 70.938656 16.013719 138.591475 41.11849 197.824531l-144.601352-0.083911C212.557582 725.090213 212.554512 725.090213 212.551442 725.090213zM164.091754 637.522832c-12.669554-34.599006-20.253276-71.626317-21.851681-110.173239l126.096906 0C228.770845 564.758598 193.555809 601.917916 164.091754 637.522832zM609.334327 273.117354l-201.853287-0.11768c28.127617-49.373501 64.87352-89.578178 107.84317-115.939569 41.550325 25.049512 77.355809 62.998823 105.270579 109.674888C616.853581 268.833795 613.100094 270.960225 609.334327 273.117354zM558.149575 303.786865c-46.26879 28.91761-93.662193 61.698201-140.635017 97.443309-23.229051 17.675568-45.776579 35.645848-67.512626 53.756321 6.166443-54.529941 20.560268-105.940844 41.654702-151.296845L558.149575 303.786865zM348.267427 496.650407c27.831882-23.918759 57.233516-47.700395 87.837534-70.989821 61.022819-46.436612 122.662691-87.745437 181.402513-121.838929l22.74912 0.013303c26.511817 56.673767 42.531676 122.872468 45.084824 192.815447L348.267427 496.650407zM722.569298 215.663828c-24.062022 10.450003-49.177026 22.636556-75.027787 36.358069-24.808012-41.726334-54.924937-76.359109-89.01843-102.564957C619.192859 157.877727 675.154405 181.227528 722.569298 215.663828zM749.802546 237.483786c12.576433 11.093662 24.388457 23.035646 35.343973 35.735899l-111.812575-0.065492C699.833481 259.455193 725.443765 247.488651 749.802546 237.483786zM475.099067 147.432841c-39.8588 30.29498-74.331939 72.071456-101.319593 123.19481-0.411369 0.779759-0.809435 1.568728-1.216711 2.351558l-141.53962-0.082888C291.465746 202.989157 377.871675 156.119687 475.099067 147.432841zM207.742926 302.805514c1.511423 0.49835 3.122107 0.778736 4.800329 0.779759l145.453766 0.084934c-23.659863 54.926984-37.674041 115.985618-41.200354 179.64345-5.081739 4.442172-10.100032 8.889461-15.071254 13.33675L142.241097 496.650407C145.220964 424.789753 169.015903 358.214475 207.742926 302.805514zM235.161393 755.802702l136.341225 0.079818c24.467251 47.693232 56.242955 88.63776 93.789083 119.671567C374.248148 864.940354 293.298488 820.781622 235.161393 755.802702zM571.948859 872.423793c35.627429-30.686906 65.856917-70.414723 89.310072-116.372427l119.18652 0.069585C726.920396 815.806307 654.126486 857.871355 571.948859 872.423793zM805.138852 725.43609l-129.624243-0.075725c25.007557-59.319014 39.438221-127.034255 40.784892-198.010773L873.651248 527.349593C870.596679 601.054245 845.641311 669.198252 805.138852 725.43609zM873.651248 496.650407 716.06721 496.650407c-2.323928-68.417229-16.699334-134.122697-42.10598-192.796004l134.980227 0.078795C847.202876 359.116007 870.691847 425.27787 873.651248 496.650407z" p-id="4200"></path></svg>