<?xml version="1.0" standalone="no"?><!DOCTYPE svg PUBLIC "-//W3C//DTD SVG 1.1//EN" "http://www.w3.org/Graphics/SVG/1.1/DTD/svg11.dtd"><svg t="1487146410307" class="icon" style="" viewBox="0 0 1024 1024" version="1.1" xmlns="http://www.w3.org/2000/svg" p-id="18358" xmlns:xlink="http://www.w3.org/1999/xlink" width="32" height="32"><defs><style type="text/css"></style></defs><path d="M512 0C229.23 0 0 229.23 0 512s229.23 512 512 512 512-229.23 512-512S794.77 0 512 0zM512 1002.667c-270.988 0-490.667-219.679-490.667-490.667S241.012 21.333 512 21.333 1002.667 241.012 1002.667 512 782.988 1002.667 512 1002.667z" p-id="18359" fill="#333333"></path><path d="M676.254 500.512c-26.555-5.158-13.651-19.469-13.651-19.469s25.984-42.883-5.14-74.059c-38.575-38.61-132.306 4.915-132.306 4.915-35.802 11.123-26.313-5.076-21.251-32.645 0-32.485-11.109-87.458-106.479-54.989-95.273 32.648-177.071 147.032-177.071 147.032-56.884 76.009-49.359 134.75-49.359 134.75 14.215 129.686 151.836 165.283 258.875 173.712 112.616 8.843 264.603-38.868 310.695-136.889C786.649 544.691 702.903 505.831 676.254 500.512zM438.204 743.191c-111.791 5.229-202.171-50.903-202.171-125.6 0-74.784 90.379-134.751 202.171-139.912 111.873-5.154 202.428 40.995 202.428 115.621C640.632 667.989 550.077 738.104 438.204 743.191z" p-id="18360" fill="#333333"></path><path d="M415.904 526.937c-112.444 13.176-99.45 118.634-99.45 118.634s-1.151 33.388 30.149 50.399c65.792 35.68 133.532 14.076 167.769-30.175C548.61 621.523 528.509 513.852 415.904 526.937zM387.541 674.945c-20.994 2.463-37.911-9.651-37.911-27.24 0-17.507 15.029-35.844 36.033-38.042 24.119-2.294 39.808 11.617 39.808 29.207C425.471 656.377 408.457 672.568 387.541 674.945zM453.822 618.409c-7.108 5.323-15.861 4.586-19.617-1.798-3.915-6.223-2.448-16.202 4.745-21.439 8.336-6.212 16.995-4.425 20.751 1.806C463.463 603.354 460.772 612.923 453.822 618.409z" p-id="18361" fill="#333333"></path><path d="M717.613 239.07c-39.725-9.318-80.584-1.29-92.032 0.908-0.885 0.082-1.714 0.92-2.528 1.08-0.4 0.082-0.645 0.494-0.645 0.494-11.281 3.195-19.538 13.657-19.538 26.014 0 14.73 11.927 26.848 26.802 26.848 0 0 14.465-1.944 24.271-5.786 9.723-3.921 92.01-2.919 132.877 65.805 22.304 50.152 9.807 83.72 8.246 89.114 0 0-5.305 13.033-5.305 25.861 0 14.813 11.935 24.119 26.709 24.119 12.351 0 22.729-1.685 25.756-22.606l0.164 0C886.271 324.482 788.698 255.676 717.613 239.07z" p-id="18362" fill="#333333"></path><path d="M731.007 454.852c9.06 0 16.764-6.712 18.056-15.462 0.165-0.658 0.246-1.226 0.246-1.962 13.73-123.628-101.171-102.353-101.171-102.353-10.201 0-18.384 8.263-18.384 18.569 0 10.144 8.183 18.408 18.384 18.408 82.534-18.243 64.321 64.396 64.321 64.396C712.459 446.671 720.775 454.852 731.007 454.852z" p-id="18363" fill="#333333"></path></svg>