<svg width="890" height="877" xmlns="http://www.w3.org/2000/svg" class="icon">
    <defs>
        <style type="text/css"/>
    </defs>
    <g>
        <title>background</title>
        <rect fill="none" id="canvas_background" height="879" width="892" y="-1" x="-1"/>
    </g>
    <g>
        <title>Layer 1</title>
        <path stroke="null" id="svg_1" d="m444.36763,875.44835c-244.38824,0 -443.1756,-196.14839 -443.1756,-437.17896c0,-241.02814 198.78984,-437.17164 443.1756,-437.17164c244.34123,0 443.17065,196.13862 443.17065,437.17164c0,241.04156 -198.82942,437.17896 -443.17065,437.17896l0,0zm0,-857.52238c-234.98236,0 -426.1164,188.54256 -426.1164,420.34341c0,231.79475 191.13404,420.33487 426.1164,420.33487c234.93907,0 426.11146,-188.53645 426.11146,-420.33487c0.00247,-231.80085 -191.18228,-420.34341 -426.11146,-420.34341l0,0z"/>
        <path stroke="null" id="svg_2" d="m353.1245,443.90742l121.89568,0c0,-28.23478 -13.51419,-44.77313 -13.51419,-44.77313l-105.78643,0c2.51364,-51.14784 4.76676,-116.79517 5.57059,-141.17683l100.62591,0c0,0 -0.54625,-41.94965 -11.73777,-41.94965l-176.87622,0c0,0 10.64971,-54.85949 24.84042,-79.07635c0,0 -52.81475,-2.8089 -70.8322,66.57051c-18.01449,69.37939 -45.03696,111.32904 -47.90293,118.99297c-2.86597,7.66102 15.55857,3.62853 23.33638,0c7.77928,-3.63143 42.99109,-16.13583 53.22629,-64.53747l54.69186,0c0.73722,30.6747 2.90298,124.68222 2.22054,141.17682l-112.59461,0c-15.96566,11.29245 -21.28903,44.77313 -21.28903,44.77313l128.68906,0c-5.36631,35.01055 -14.79026,80.13953 -27.96843,104.06472c-20.87898,37.91569 -31.93577,72.60538 -107.27271,132.30532c0,0 -12.28253,8.87296 25.79377,5.6455c38.07778,-3.22454 74.10972,-12.90691 99.08337,-62.11798c12.98423,-25.58485 26.41109,-58.03735 36.8861,-90.95217l-0.03701,0.11668l106.04253,120.28221c0,0 13.91982,-32.26728 3.68609,-67.76495l-78.61,-86.72424l-26.61241,19.391l-0.03109,0.09479c7.39143,-25.53088 12.70592,-50.7701 14.35948,-72.72935c0.03997,-0.52795 0.08143,-1.06902 0.11696,-1.61154l0,0zm0,0"/>
        <path stroke="null" transform="rotate(-0.404446005821228 627.3619384765558,436.8040466308664) " id="svg_3" d="m510.51127,213.15548l0,399.23928l43.86851,0l17.97253,48.05787l76.03457,-48.05787l95.82568,0l0,-399.23928l-233.70129,0l0,0zm188.54924,356.29799l-49.80672,0l-62.12465,39.2654l-14.68327,-39.2654l-15.50485,0l0,-311.74396l142.12095,0l0,311.74396l-0.00146,0zm0,0"/>
    </g>
</svg>